<svg width="32" height="33" viewBox="0 0 32 33" fill="none" xmlns="http://www.w3.org/2000/svg">
<rect y="0.5" width="32" height="32" rx="10" fill="#039342"/>
<g clip-path="url(#clip0_674_1181)">
<g clip-path="url(#clip1_674_1181)">
<g clip-path="url(#clip2_674_1181)">
<mask id="mask0_674_1181" style="mask-type:luminance" maskUnits="userSpaceOnUse" x="8" y="8" width="16" height="17">
<path d="M24 8.5H8V24.5H24V8.5Z" fill="white"/>
</mask>
<g mask="url(#mask0_674_1181)">
<path d="M22 8.5H10C9.46957 8.5 8.96086 8.71071 8.58579 9.08579C8.21071 9.46086 8 9.96957 8 10.5V22.5C8 23.0304 8.21071 23.5391 8.58579 23.9142C8.96086 24.2893 9.46957 24.5 10 24.5H22C22.5304 24.5 23.0391 24.2893 23.4142 23.9142C23.7893 23.5391 24 23.0304 24 22.5V10.5C24 9.96957 23.7893 9.46086 23.4142 9.08579C23.0391 8.71071 22.5304 8.5 22 8.5ZM9 12.357C9 11.884 9.448 11.5 10 11.5H22C22.552 11.5 23 11.884 23 12.357V22.643C23 23.116 22.552 23.5 22 23.5H10C9.448 23.5 9 23.116 9 22.643V12.357Z" fill="white"/>
<path d="M14.5 15.5C14.7652 15.5 15.0196 15.3946 15.2071 15.2071C15.3946 15.0196 15.5 14.7652 15.5 14.5C15.5 14.2348 15.3946 13.9804 15.2071 13.7929C15.0196 13.6054 14.7652 13.5 14.5 13.5C14.2348 13.5 13.9804 13.6054 13.7929 13.7929C13.6054 13.9804 13.5 14.2348 13.5 14.5C13.5 14.7652 13.6054 15.0196 13.7929 15.2071C13.9804 15.3946 14.2348 15.5 14.5 15.5ZM17.5 15.5C17.7652 15.5 18.0196 15.3946 18.2071 15.2071C18.3946 15.0196 18.5 14.7652 18.5 14.5C18.5 14.2348 18.3946 13.9804 18.2071 13.7929C18.0196 13.6054 17.7652 13.5 17.5 13.5C17.2348 13.5 16.9804 13.6054 16.7929 13.7929C16.6054 13.9804 16.5 14.2348 16.5 14.5C16.5 14.7652 16.6054 15.0196 16.7929 15.2071C16.9804 15.3946 17.2348 15.5 17.5 15.5ZM20.5 15.5C20.7652 15.5 21.0196 15.3946 21.2071 15.2071C21.3946 15.0196 21.5 14.7652 21.5 14.5C21.5 14.2348 21.3946 13.9804 21.2071 13.7929C21.0196 13.6054 20.7652 13.5 20.5 13.5C20.2348 13.5 19.9804 13.6054 19.7929 13.7929C19.6054 13.9804 19.5 14.2348 19.5 14.5C19.5 14.7652 19.6054 15.0196 19.7929 15.2071C19.9804 15.3946 20.2348 15.5 20.5 15.5ZM11.5 18.5C11.7652 18.5 12.0196 18.3946 12.2071 18.2071C12.3946 18.0196 12.5 17.7652 12.5 17.5C12.5 17.2348 12.3946 16.9804 12.2071 16.7929C12.0196 16.6054 11.7652 16.5 11.5 16.5C11.2348 16.5 10.9804 16.6054 10.7929 16.7929C10.6054 16.9804 10.5 17.2348 10.5 17.5C10.5 17.7652 10.6054 18.0196 10.7929 18.2071C10.9804 18.3946 11.2348 18.5 11.5 18.5ZM14.5 18.5C14.7652 18.5 15.0196 18.3946 15.2071 18.2071C15.3946 18.0196 15.5 17.7652 15.5 17.5C15.5 17.2348 15.3946 16.9804 15.2071 16.7929C15.0196 16.6054 14.7652 16.5 14.5 16.5C14.2348 16.5 13.9804 16.6054 13.7929 16.7929C13.6054 16.9804 13.5 17.2348 13.5 17.5C13.5 17.7652 13.6054 18.0196 13.7929 18.2071C13.9804 18.3946 14.2348 18.5 14.5 18.5ZM17.5 18.5C17.7652 18.5 18.0196 18.3946 18.2071 18.2071C18.3946 18.0196 18.5 17.7652 18.5 17.5C18.5 17.2348 18.3946 16.9804 18.2071 16.7929C18.0196 16.6054 17.7652 16.5 17.5 16.5C17.2348 16.5 16.9804 16.6054 16.7929 16.7929C16.6054 16.9804 16.5 17.2348 16.5 17.5C16.5 17.7652 16.6054 18.0196 16.7929 18.2071C16.9804 18.3946 17.2348 18.5 17.5 18.5ZM20.5 18.5C20.7652 18.5 21.0196 18.3946 21.2071 18.2071C21.3946 18.0196 21.5 17.7652 21.5 17.5C21.5 17.2348 21.3946 16.9804 21.2071 16.7929C21.0196 16.6054 20.7652 16.5 20.5 16.5C20.2348 16.5 19.9804 16.6054 19.7929 16.7929C19.6054 16.9804 19.5 17.2348 19.5 17.5C19.5 17.7652 19.6054 18.0196 19.7929 18.2071C19.9804 18.3946 20.2348 18.5 20.5 18.5ZM11.5 21.5C11.7652 21.5 12.0196 21.3946 12.2071 21.2071C12.3946 21.0196 12.5 20.7652 12.5 20.5C12.5 20.2348 12.3946 19.9804 12.2071 19.7929C12.0196 19.6054 11.7652 19.5 11.5 19.5C11.2348 19.5 10.9804 19.6054 10.7929 19.7929C10.6054 19.9804 10.5 20.2348 10.5 20.5C10.5 20.7652 10.6054 21.0196 10.7929 21.2071C10.9804 21.3946 11.2348 21.5 11.5 21.5ZM14.5 21.5C14.7652 21.5 15.0196 21.3946 15.2071 21.2071C15.3946 21.0196 15.5 20.7652 15.5 20.5C15.5 20.2348 15.3946 19.9804 15.2071 19.7929C15.0196 19.6054 14.7652 19.5 14.5 19.5C14.2348 19.5 13.9804 19.6054 13.7929 19.7929C13.6054 19.9804 13.5 20.2348 13.5 20.5C13.5 20.7652 13.6054 21.0196 13.7929 21.2071C13.9804 21.3946 14.2348 21.5 14.5 21.5ZM17.5 21.5C17.7652 21.5 18.0196 21.3946 18.2071 21.2071C18.3946 21.0196 18.5 20.7652 18.5 20.5C18.5 20.2348 18.3946 19.9804 18.2071 19.7929C18.0196 19.6054 17.7652 19.5 17.5 19.5C17.2348 19.5 16.9804 19.6054 16.7929 19.7929C16.6054 19.9804 16.5 20.2348 16.5 20.5C16.5 20.7652 16.6054 21.0196 16.7929 21.2071C16.9804 21.3946 17.2348 21.5 17.5 21.5Z" fill="white"/>
</g>
</g>
</g>
</g>
<defs>
<clipPath id="clip0_674_1181">
<rect width="16" height="16" fill="white" transform="translate(8 8.5)"/>
</clipPath>
<clipPath id="clip1_674_1181">
<rect width="16" height="16" fill="white" transform="translate(8 8.5)"/>
</clipPath>
<clipPath id="clip2_674_1181">
<rect width="16" height="16" fill="white" transform="translate(8 8.5)"/>
</clipPath>
</defs>
</svg>
