<svg width="20" height="20" viewBox="0 0 20 20" fill="none" xmlns="http://www.w3.org/2000/svg">
<path d="M10.2557 0.676147C5.04686 0.676147 0.824646 4.89917 0.824646 10.1072C0.824646 15.3161 5.04686 19.5383 10.2557 19.5383C15.4638 19.5383 19.6868 15.3153 19.6868 10.1072C19.6868 4.89917 15.4638 0.676147 10.2557 0.676147ZM7.9453 12.6398C7.9453 13.1495 7.53226 13.5617 7.02336 13.5617C6.51366 13.5617 6.10142 13.1495 6.10142 12.6398V8.70915C6.10142 8.19945 6.51366 7.78641 7.02336 7.78641C7.53226 7.78641 7.9453 8.19945 7.9453 8.70915V12.6398ZM14.458 12.5735C14.458 13.2941 14.037 13.5521 13.3163 13.5521H10.0009C9.28027 13.5521 8.69627 12.9681 8.69627 12.2475V8.98637C8.69627 8.98637 8.63156 8.44391 9.23233 7.93421C9.57187 7.6458 10.076 7.09536 10.4283 6.42747C11.1281 5.10049 11.5468 4.71382 11.8655 4.81768C13.0463 5.20035 12.4559 6.95076 12.0748 7.68176H13.1534C13.8732 7.68176 14.458 8.26576 14.458 8.98637V12.5735Z" fill="#039342"/>
</svg>
